inDegrees=no
num_controls=7
num_derivatives=13
num_iterations=91
num_multipliers=7
num_parameters=0
num_slacks=7
num_states=26
objective=0.452887
objective_accelerations=0.049669
objective_balance=0.001055
objective_effort=0.038218
objective_height=0.358327
objective_ligament=0.005618
solver_duration=1092.062050
status=Solve_Succeeded
success=true
DataType=double
version=3
OpenSimVersion=4.5
endheader
time	/jointset/ground_pelvis/pelvis_tilt/value	/jointset/ground_pelvis/pelvis_tx/value	/jointset/ground_pelvis/pelvis_ty/value	/jointset/hip_r/hip_flexion_r/value	/jointset/hip_r/hip_adduction_r/value	/jointset/hip_r/hip_rotation_r/value	/jointset/back/lumbar_extension/value	/jointset/patellofemoral_r/patellar_flexion_r/value	/jointset/knee_r/knee_flexion_r/value	/jointset/knee_r/knee_adduction_r/value	/jointset/knee_r/knee_rotation_r/value	/jointset/ankle_r/ankle_angle_r/value	/jointset/subtalar_r/subtalar_angle_r/value	/jointset/ground_pelvis/pelvis_tilt/speed	/jointset/ground_pelvis/pelvis_tx/speed	/jointset/ground_pelvis/pelvis_ty/speed	/jointset/hip_r/hip_flexion_r/speed	/jointset/hip_r/hip_adduction_r/speed	/jointset/hip_r/hip_rotation_r/speed	/jointset/back/lumbar_extension/speed	/jointset/patellofemoral_r/patellar_flexion_r/speed	/jointset/knee_r/knee_flexion_r/speed	/jointset/knee_r/knee_adduction_r/speed	/jointset/knee_r/knee_rotation_r/speed	/jointset/ankle_r/ankle_angle_r/speed	/jointset/subtalar_r/subtalar_angle_r/speed	/forceset/tau_hip_flexion_r	/forceset/tau_hip_adduction_r	/forceset/tau_hip_rotation_r	/forceset/tau_knee_flexion_r	/forceset/tau_ankle_angle_r	/forceset/tau_subtalar_angle_r	/forceset/tau_lumbar_extension	lambda_cid13_p0	lambda_cid14_p0	lambda_cid14_p1	lambda_cid14_p2	lambda_cid14_p3	lambda_cid14_p4	lambda_cid14_p5	/jointset/ground_pelvis/pelvis_tilt/accel	/jointset/ground_pelvis/pelvis_tx/accel	/jointset/ground_pelvis/pelvis_ty/accel	/jointset/hip_r/hip_flexion_r/accel	/jointset/hip_r/hip_adduction_r/accel	/jointset/hip_r/hip_rotation_r/accel	/jointset/back/lumbar_extension/accel	/jointset/patellofemoral_r/patellar_flexion_r/accel	/jointset/knee_r/knee_flexion_r/accel	/jointset/knee_r/knee_adduction_r/accel	/jointset/knee_r/knee_rotation_r/accel	/jointset/ankle_r/ankle_angle_r/accel	/jointset/subtalar_r/subtalar_angle_r/accel	gamma_cid13_p0	gamma_cid14_p0	gamma_cid14_p1	gamma_cid14_p2	gamma_cid14_p3	gamma_cid14_p4	gamma_cid14_p5
1	-0.2280249338773143	-0.01604810917179131	0.6260978287619297	1.448090014143127	-0.2388864833052756	-0.08021259915610887	-0.7853746672428035	1.536534798746714	1.536534798746715	-0.1744884832795801	0.1732299394566684	0.4362588511631697	0.174521740716692	0.06883999564508268	0.004713666036545917	0.01727937786780701	-0.1038621800857851	-0.0003882264611890325	-7.217495903412519e-05	-0.0002440969724570445	-0.02329255622538133	-0.02329255622538137	0.007069588850584734	-0.001273425292159178	0.0112698510311164	0.005048889662740547	-0.3298354806663992	0.03003556175962684	0.009494983311607797	-0.4728853327111279	-0.007478463051258317	0.003758110452912187	0.3558149483927573	-0.040657660814628	-54.26533287339227	-12.12077550392546	7.210502204913455	6.953039441557731	-768.9360143404249	67.20859520292296	1.289169351462474	0.1538489512359557	1.82492605507334	-5.486715443260686	0.2442168467323557	-0.6842666861449792	-0.06289752914768643	-4.953215548980826	-4.953215548980772	0.5721956270367565	-0.02440520177935289	-0.8950387357149331	0.01882156189477016	2.445096202815333e-09	3.531422164022146e-10	2.187664608061927e-08	1.774979856516095e-08	4.639410399000425e-09	-1.00745901076035e-08	3.723739916521736e-08
1.01	-0.227272327396515	-0.01599311846167793	0.6263619306836923	1.44677695910134	-0.2388782935174167	-0.08024526989465304	-0.7853789317683965	1.536054253150564	1.536054253150543	-0.1743866613611406	0.1732159430036216	0.436326945473477	0.1745729266392387	0.08172375294614882	0.006304064626534022	0.03555976853488398	-0.1588494135318828	0.002011308311932686	-0.006472111479277762	-0.0005532813675587352	-0.07285229081725911	-0.07285229081725891	0.01331622113014592	-0.001494799778548442	0.002368061550429621	0.00516988982477319	-0.3304809775145418	0.03011898104380129	0.009591501894830663	-0.4732299272336538	-0.007505976568978239	0.003710567138012424	0.3567236028942118	-0.04065603064253007	-54.32920045818825	-12.16208253484197	7.22791195030308	6.767184017623133	-769.8129265786204	67.22505444491671	1.294349558229288	0.1645748912143687	1.832405760832069	-5.519812777343074	0.2355977230253797	-0.6193752501159693	-0.006599878925851181	-4.962713158403471	-4.962713158403838	0.6541110749434492	-0.01632876483318974	-0.8848925023046056	0.005993026661805349	7.806807575472273e-09	5.391283578993391e-09	5.163612152174602e-08	5.331192564419487e-08	6.393083489138793e-09	-2.049104308706959e-08	1.042470606344216e-07
1.02	-0.2263896092149242	-0.01592163584999927	0.6268093985497869	1.444911014628629	-0.2388465531957464	-0.08034224362143323	-0.7853846223346231	1.535077038059674	1.535077038059671	-0.1742217303106243	0.1732006677671523	0.4363065931992942	0.1746247733200662	0.09486233579920871	0.00801204634960288	0.05395256673442688	-0.2144400662603521	0.00432188030197884	-0.0129327726055972	-0.0005293051320103897	-0.1226264551736018	-0.1226264551736016	0.01969141527080698	-0.00152918197551315	-0.006419465852601097	0.005181041318979919	-0.3311264743629748	0.03020240032794519	0.00968802047811663	-0.4735745217561662	-0.00753349008664432	0.003663023823082222	0.3576322573954	-0.0406609517792014	-54.40018615275829	-12.20117771913555	7.241018688565689	6.579836580607806	-770.8058846819421	67.27046013384749	1.340134461861211	0.1773655778521444	1.847407561566535	-5.607399299735019	0.2264242901172265	-0.696411607360126	0.003734596982843683	-4.996101501873812	-4.996101501873804	0.5979079992567623	0.01299325610557083	-0.8721863201836563	-0.003148171670408535	1.341376915343093e-08	1.675563823459628e-08	8.454513556409298e-08	9.537094858822454e-08	-4.197852588535274e-09	-2.449227415945823e-08	1.822034201670547e-07
1.03	-0.2253764879780937	-0.0158326391368838	0.6274410039129026	1.442489066221179	-0.2387920991771525	-0.0805042112436898	-0.7853856831278055	1.533600972695333	1.533600972695331	-0.1739925060505873	0.1731860646206539	0.4361982157549276	0.1746759115648308	0.1075753321093777	0.009791606862245747	0.07235169479533526	-0.2697547030134163	0.006560489427184834	-0.01948005105841355	0.0006489470885062278	-0.1726262101397809	-0.1726262101397793	0.02616240221371082	-0.001354746933066447	-0.01530914936616646	0.005003375941580075	-0.3318169743551674	0.03033084895926052	0.009809877203806236	-0.4733849607085789	-0.008261552505748044	0.003679762149340326	0.3586960665661814	-0.04069952474400163	-54.68606362863277	-12.2295473680915	7.229075217345212	6.71055119916033	-771.6131940315109	67.29580843190755	1.208901167457036	0.178894828332435	1.833638054894931	-5.464253509130161	0.2213316514793753	-0.6367711139741603	0.2246406312432277	-5.007855199437076	-5.007855199437195	0.6730362491920932	0.02521164378906915	-0.9053280589456155	-0.03152572659332861	1.902323328450491e-08	2.818454608706666e-08	1.17486287755432e-07	1.374962663880195e-07	-1.491475406588097e-08	-2.842804378381542e-08	2.602714807003351e-07
1.04	-0.224241832987766	-0.01572571811057078	0.6282560950819354	1.439519819916979	-0.2387155085817537	-0.08073222868043627	-0.7853650073797865	1.531623721240241	1.531623721240241	-0.173698303479617	0.1731743144276595	0.4359993477370275	0.1747239831546574	0.1191690864940146	0.01159690898911106	0.09064972791805802	-0.3238996456080221	0.008749195662673615	-0.0261427355004971	0.003818003175331033	-0.2228636733238269	-0.2228636733238241	0.03268707745200252	-0.0009585912716206701	-0.02451758055982338	0.004567710331438479	-0.3325074743474704	0.03045929759053368	0.00993173392932825	-0.4731953996609981	-0.008989614924833231	0.003696500475533399	0.3597598757368653	-0.04074481874551888	-54.97916655848928	-12.25534672338659	7.212340727887208	6.839252748268213	-772.5402076714934	67.35134431691492	1.116286076754859	0.1825139006966144	1.827188573929404	-5.373460468043332	0.2164437121737869	-0.7194928052135512	0.4018953702454376	-5.043643145447228	-5.043643145447239	0.6086456583343491	0.05733737990538279	-0.9359358562020049	-0.05474821821877191	2.522778615357753e-08	3.545513993620435e-08	1.37421140457647e-07	1.796873164760311e-07	-1.65711686549702e-08	-3.489672918527021e-08	3.233896799243507e-07
1.05	-0.2229954872916438	-0.01560048664935998	0.6292537152380484	1.436013549660726	-0.2386170313772429	-0.08102740786988941	-0.7853039461306588	1.529143204902214	1.529143204902248	-0.1733390354276603	0.1731668887114133	0.4357072668589769	0.174767114720292	0.1300416314376594	0.01346629937470121	0.1088622074231089	-0.3772943487244704	0.01096330341495074	-0.03290234902971984	0.008607986948229557	-0.2732497460780692	-0.2732497460780703	0.03913578354158386	-0.0005654766119614422	-0.03390660957944102	0.004086236553244652	-0.3330837895977636	0.03061652460399202	0.01009111169494244	-0.4725394882300096	-0.009652721107084197	0.003713881716003492	0.3607007758436771	-0.04077642256894894	-55.21672050930064	-12.26693909630323	7.18854239837145	6.827964967187799	-773.0336593483624	67.35085600676506	1.063984623891444	0.1916854228181618	1.816454901515076	-5.313458144167448	0.2264814465995647	-0.6555636754654747	0.5496109259770063	-5.037618462967359	-5.037618462968183	0.6583630797890259	0.02451899480469731	-0.9415874835116351	-0.04065097428951288	3.145093554571261e-08	4.259578647273791e-08	1.56949546300827e-07	2.218804206980495e-07	-1.794444302880148e-08	-4.144456820475928e-08	3.860406959824519e-07
1.06	-0.2216421669619161	-0.01545605452122884	0.630433095641756	1.431975135791216	-0.2384958956672329	-0.08139045680437093	-0.7851885728347847	1.526158522012135	1.526158522012134	-0.1729162043156216	0.1731622382389323	0.4353210554789949	0.1748062707448107	0.1405640132101774	0.01543704237317611	0.1270017774371708	-0.4303283682698048	0.01328089676100813	-0.03971668450648351	0.01468041252773439	-0.3236969837344832	-0.3236969837344882	0.04539968945190909	-0.0004035425199579236	-0.04334368094584858	0.003772602108259328	-0.3336601048478718	0.0307737516174734	0.01025048946003533	-0.4718835767990549	-0.01031582728934855	0.003731262956523118	0.361641675950668	-0.0408154610031511	-55.46178888755492	-12.27592063645259	7.159842410244878	6.816021138403138	-773.6508459850107	67.3811576231753	1.046253442529572	0.2027844232735076	1.812606675731612	-5.301323753820529	0.2371408309298659	-0.7304371947217163	0.6583837315667658	-5.055876125881584	-5.055876125881588	0.571685622483135	0.01110126637422889	-0.9455443255600927	-0.02118035157709679	3.364264065545684e-08	4.611923585076743e-08	1.758194614218763e-07	2.38494581567767e-07	-2.00192051280114e-08	-4.661565492002973e-08	4.191670647825223e-07
1.07	-0.2201847093533272	-0.01529137901528932	0.6317935186852226	1.427407575870829	-0.2383513184528231	-0.08182084732560216	-0.7850069967550031	1.522669229508405	1.522669229508434	-0.1724302349379249	0.1731584733043521	0.4348401855243697	0.1748426016206027	0.1509338755010425	0.01751789029897453	0.1450718121415174	-0.4831833695149478	0.01562774505172714	-0.04626036215129559	0.02175743537848291	-0.3741550629926287	-0.3741550629926268	0.05190686933809054	-0.000350471792020081	-0.05284292312484891	0.003471017737144013	-0.3337655268522981	0.03085339344962165	0.01048419147688501	-0.4710093144269641	-0.01076954448593119	0.003738817526802696	0.3621378155907505	-0.04086005531887385	-55.60831650949704	-12.27040617186894	7.127106999755163	6.770462368998863	-773.7848054929401	67.38923358641676	1.033318240199695	0.2137052434836587	1.802538585773812	-5.277541498003601	0.2324691828248512	-0.6011546225587199	0.7507563543298668	-5.039812874923283	-5.039812874922478	0.7071303960114229	0.002323966514830092	-0.9540053118122751	-0.03797030239825157	3.561990723954195e-08	4.945028112462118e-08	1.946543504406846e-07	2.537481603442769e-07	-2.213128040410316e-08	-5.171351012975664e-08	4.507229736220588e-07
